<?xml version="1.0" standalone="no"?>
<!DOCTYPE svg PUBLIC "-//W3C//DTD SVG 20010904//EN"
 "http://www.w3.org/TR/2001/REC-SVG-20010904/DTD/svg10.dtd">
<svg version="1.0" xmlns="http://www.w3.org/2000/svg"
 width="400.000000pt" height="400.000000pt" viewBox="0 0 400.000000 400.000000"
 preserveAspectRatio="xMidYMid meet">
<metadata>
Created by potrace 1.11, written by Peter Selinger 2001-2013
</metadata>
<g transform="translate(0.000000,400.000000) scale(0.100000,-0.100000)"
fill="#000000" stroke="none">
<path d="M1927 3742 c-22 -25 -21 -75 1 -95 28 -26 78 -22 98 8 41 62 -49 142
-99 87z"/>
<path d="M2119 3664 c-63 -52 -92 -64 -157 -64 -60 0 -72 5 -161 71 -30 22
-61 20 -61 -4 0 -7 36 -48 80 -90 l81 -77 -3 -67 c-3 -59 -6 -68 -23 -72 -29
-5 -76 -41 -69 -52 4 -6 11 -6 20 2 11 9 15 7 21 -7 4 -11 17 -27 30 -37 18
-14 23 -29 25 -80 l3 -62 65 -3 c35 -2 70 -8 77 -14 10 -8 13 -68 14 -252 1
-132 4 -254 8 -271 6 -29 7 -30 76 -33 39 -2 85 0 103 3 l32 6 0 243 c0 146 4
255 11 273 5 17 33 50 61 74 l51 43 -5 -42 c-5 -35 -3 -42 10 -42 14 0 16 9
14 53 -3 51 -2 53 42 95 24 23 48 42 51 42 8 0 91 -91 123 -134 23 -31 23 -32
16 -257 -4 -124 -4 -238 0 -253 10 -42 47 -50 128 -30 54 13 69 21 73 38 10
42 22 421 14 424 -12 5 -11 32 1 32 6 0 10 6 10 13 0 20 29 77 60 117 15 19
30 44 34 54 5 15 9 17 19 7 9 -9 12 -84 12 -284 l0 -272 51 -3 c82 -5 82 -4
95 269 9 200 15 252 40 357 16 67 29 127 29 132 0 6 -10 10 -23 10 -14 0 -26
9 -32 23 -8 18 -19 23 -59 25 -27 2 -53 -1 -58 -6 -5 -5 -11 -32 -15 -60 -5
-46 -9 -52 -29 -52 -12 0 -26 -4 -29 -10 -3 -5 -14 -10 -25 -10 -10 0 -32 -16
-49 -35 -17 -20 -31 -30 -32 -23 -1 7 -1 27 -1 45 -1 39 -20 58 -75 72 -48 13
-72 5 -97 -31 -16 -23 -21 -74 -10 -103 7 -17 65 -45 95 -45 25 0 24 8 -3 31
l-23 18 23 1 c13 0 20 -4 17 -10 -4 -6 2 -7 17 -1 17 6 25 19 29 47 l6 39 2
-41 c1 -32 -4 -45 -24 -62 -14 -12 -25 -26 -25 -31 0 -4 -20 -16 -45 -26 l-46
-17 -47 43 c-26 24 -50 48 -54 53 -4 6 -31 12 -60 12 -29 1 -61 5 -71 9 -23
10 -55 -7 -106 -56 -62 -59 -115 -83 -196 -87 -38 -2 -82 1 -97 7 l-28 11 0
127 0 128 80 80 c75 74 79 80 63 97 -22 24 -25 23 -74 -18z m691 -204 c0 -5
-2 -10 -4 -10 -3 0 -8 5 -11 10 -3 6 -1 10 4 10 6 0 11 -4 11 -10z m40 -10 c0
-5 -4 -10 -10 -10 -5 0 -10 5 -10 10 0 6 5 10 10 10 6 0 10 -4 10 -10z m-54
-26 c-3 -9 -6 -20 -6 -25 0 -5 -4 -9 -10 -9 -5 0 -10 11 -10 25 0 16 6 25 16
25 11 0 14 -5 10 -16z m21 -41 c-3 -10 -5 -4 -5 12 0 17 2 24 5 18 2 -7 2 -21
0 -30z m213 23 c0 -3 -4 -8 -10 -11 -5 -3 -10 -1 -10 4 0 6 5 11 10 11 6 0 10
-2 10 -4z m-30 -32 c0 -9 5 -12 12 -8 7 4 8 3 4 -5 -6 -9 -11 -9 -22 0 -16 13
-18 29 -4 29 6 0 10 -7 10 -16z m-1024 -62 c-12 -11 -18 7 -10 30 l8 23 4 -23
c2 -13 1 -26 -2 -30z m1014 28 c0 -5 -5 -10 -10 -10 -6 0 -15 -10 -20 -22 -5
-13 -9 -17 -9 -10 -1 19 18 52 29 52 6 0 10 -4 10 -10z m-361 -29 l35 -28 -27
0 c-14 0 -25 5 -24 11 1 6 -6 10 -15 10 -10 -1 -16 5 -15 17 2 25 5 24 46 -10z
m281 -56 c-7 -9 -15 -13 -17 -11 -6 6 20 36 26 30 2 -2 -2 -10 -9 -19z m-235
5 c3 -5 21 -10 38 -10 18 0 39 -5 47 -11 11 -7 3 -8 -30 -3 -43 6 -80 20 -80
29 0 9 19 5 25 -5z m205 -20 c0 -5 -10 -10 -23 -10 -13 0 -33 -9 -45 -20 -12
-12 -23 -16 -27 -10 -3 6 -1 10 6 10 8 0 7 5 -2 16 -12 15 -11 16 7 10 12 -3
32 -2 45 3 32 13 39 13 39 1z m-158 -27 c-20 -3 -30 -8 -26 -15 4 -6 1 -9 -6
-6 -8 2 -16 10 -18 16 -2 8 10 11 40 10 37 -1 38 -2 10 -5z m-745 -65 c-3 -8
-6 -5 -6 6 -1 11 2 17 5 13 3 -3 4 -12 1 -19z m870 -220 c-3 -7 -5 -2 -5 12 0
14 2 19 5 13 2 -7 2 -19 0 -25z m-668 -190 c0 -87 -4 -136 -10 -127 -13 20
-12 269 1 269 7 0 10 -50 9 -142z"/>
<path d="M1107 3666 c-10 -14 -17 -41 -17 -60 0 -39 20 -56 64 -56 26 0 36
-15 14 -22 -14 -5 -84 27 -93 42 -3 5 -17 10 -30 10 -19 0 -23 -4 -18 -17 5
-15 3 -16 -8 -5 -18 16 -29 15 -29 -3 0 -11 -7 -14 -25 -11 -20 4 -25 1 -25
-15 0 -10 6 -19 13 -20 6 -1 1 -4 -13 -8 -32 -9 -35 -36 -15 -126 9 -38 19
-119 22 -180 3 -60 7 -112 10 -115 3 -3 3 41 1 97 -1 55 0 100 3 98 13 -9 29
-119 32 -225 4 -125 1 -151 -15 -129 -6 10 -7 7 -3 -10 5 -14 2 -26 -5 -31
-18 -11 -2 -30 26 -30 20 0 24 -5 24 -27 0 -54 19 -98 47 -110 33 -16 87 -17
115 -2 19 10 20 16 13 144 l-7 133 31 16 31 17 0 137 c0 106 -3 143 -15 158
-22 29 -19 71 5 79 15 5 19 12 14 27 -9 31 54 168 78 168 15 0 17 3 9 19 -6
10 -7 21 -4 25 7 7 -5 8 -68 6 -39 -1 -47 2 -52 19 -3 14 -13 21 -29 21 -12 0
-32 3 -44 6 -15 4 -25 -2 -37 -20z"/>
<path d="M1550 3574 l-35 -14 35 6 c36 6 46 11 39 18 -2 2 -20 -3 -39 -10z"/>
<path d="M2135 3454 c-42 -22 -55 -40 -55 -79 0 -104 119 -152 175 -71 52 73
-42 191 -120 150z"/>
<path d="M1535 3280 c-7 -11 2 -30 14 -30 5 0 11 9 14 20 5 21 -16 29 -28 10z"/>
<path d="M967 3083 c-4 -65 -3 -121 1 -125 4 -4 9 49 10 118 2 68 2 124 -1
124 -2 0 -7 -53 -10 -117z"/>
<path d="M592 2953 c-6 -10 -12 -31 -16 -48 -11 -59 -38 -420 -34 -459 11 -91
211 -530 276 -607 36 -42 181 -140 381 -259 217 -128 240 -161 241 -333 l0
-107 248 2 247 3 1 30 c1 17 4 107 5 200 4 157 2 175 -19 237 -46 131 -187
309 -296 373 -64 37 -151 62 -276 80 -151 22 -156 25 -290 185 -111 133 -243
220 -311 205 -46 -10 -53 -36 -22 -81 93 -139 171 -245 206 -281 23 -24 38
-45 36 -48 -13 -12 -93 63 -140 133 -29 42 -74 103 -101 135 -26 32 -51 69
-54 83 -9 34 10 72 41 86 30 14 30 9 5 221 -21 179 -34 225 -71 251 -30 21
-46 20 -57 -1z"/>
<path d="M3398 2963 c-34 -9 -58 -86 -78 -249 -26 -203 -26 -221 0 -229 31
-10 53 -50 46 -82 -4 -15 -32 -59 -63 -98 -31 -38 -76 -100 -100 -137 -41 -64
-69 -91 -123 -118 -19 -10 -16 -3 16 31 58 62 234 315 234 337 0 18 -37 42
-63 42 -25 0 -139 -61 -183 -97 -25 -21 -84 -84 -130 -140 -46 -55 -98 -110
-117 -121 -20 -13 -65 -25 -119 -32 -116 -14 -312 -85 -372 -134 -90 -74 -182
-200 -228 -315 -22 -53 -23 -67 -20 -261 2 -113 7 -208 11 -213 4 -4 115 -6
247 -5 l239 3 5 120 c7 167 18 182 239 316 391 236 381 227 481 433 43 88 95
201 114 250 l36 89 -1 261 c-1 326 -9 366 -71 349z"/>
<path d="M1501 2775 c0 -77 -4 -150 -7 -162 -5 -17 -2 -23 10 -23 14 0 16 13
15 88 -1 48 -5 121 -9 162 -6 67 -7 60 -9 -65z"/>
<path d="M1605 2600 c-3 -5 -2 -10 4 -10 5 0 13 5 16 10 3 6 2 10 -4 10 -5 0
-13 -4 -16 -10z"/>
<path d="M808 706 c-63 -92 -81 -147 -82 -246 -1 -80 2 -91 36 -160 52 -105
84 -141 128 -143 19 -1 37 1 39 3 2 3 -4 23 -14 45 -80 184 -78 344 6 519 11
22 19 41 19 43 0 2 -21 2 -46 1 -44 -1 -47 -3 -86 -62z"/>
<path d="M2349 759 c-91 -14 -149 -63 -149 -128 0 -71 51 -110 186 -142 99
-23 114 -32 114 -64 0 -37 -24 -49 -98 -46 -26 1 -37 8 -53 36 -21 35 -21 35
-95 35 -71 0 -74 -1 -74 -24 0 -23 27 -65 62 -97 32 -29 102 -42 200 -37 75 3
101 9 136 28 78 44 103 120 62 188 -24 39 -74 63 -180 87 -89 20 -104 26 -108
50 -5 23 15 35 61 35 35 0 69 -21 78 -48 3 -8 28 -9 77 -5 79 6 85 13 55 63
-33 57 -152 87 -274 69z"/>
<path d="M3020 762 c0 -4 4 -12 9 -17 22 -26 62 -153 72 -233 10 -80 9 -97 -9
-168 -11 -44 -31 -103 -45 -132 l-25 -52 43 0 c51 0 78 26 124 119 62 126 66
232 10 351 -16 35 -33 67 -37 70 -5 3 -18 20 -31 38 -19 28 -28 32 -67 32 -24
0 -44 -4 -44 -8z"/>
<path d="M1155 703 c-15 -32 -35 -78 -45 -103 -10 -25 -43 -101 -74 -170 -30
-68 -53 -127 -51 -130 2 -3 39 -4 84 -2 l81 4 8 31 8 32 97 3 98 3 14 -35 15
-34 81 -4 c44 -2 82 -1 83 2 2 3 -42 107 -97 233 l-100 227 -88 0 -88 0 -26
-57z m148 -160 l27 -73 -64 0 -64 0 31 80 c16 45 33 77 37 73 4 -4 19 -41 33
-80z"/>
<path d="M1670 540 c-52 -121 -96 -225 -98 -232 -2 -10 16 -12 80 -8 l82 5 10
33 9 33 101 -3 100 -3 10 -32 9 -33 83 0 c46 0 84 3 84 6 0 3 -39 94 -86 203
-47 108 -91 208 -97 224 -12 27 -13 27 -102 27 l-90 -1 -95 -219z m218 7 l30
-77 -64 0 -64 0 22 58 c11 31 25 68 30 81 5 13 10 22 13 20 2 -3 17 -39 33
-82z"/>
<path d="M2760 530 l0 -230 80 0 80 0 0 230 0 230 -80 0 -80 0 0 -230z"/>
</g>
</svg>
